<svg width="102" height="22" viewBox="0 0 102 22" fill="none" xmlns="http://www.w3.org/2000/svg">
<g clip-path="url(#clip0_51_2)">
<path d="M17.0119 21.9718L10.3278 21.8524C8.16353 21.8109 5.99396 21.894 3.87226 21.4631C0.644501 20.8194 0.415846 17.6634 0.176556 15.0161C-0.153133 11.2942 -0.0255115 7.5049 0.596643 3.8142C0.947602 1.74305 2.33017 0.507626 4.46783 0.372664C11.6838 -0.115276 18.9475 -0.0581772 26.1475 0.170221C26.9079 0.190984 27.6736 0.305183 28.4234 0.434954C32.1244 1.06824 32.2148 4.64474 32.4541 7.65543C32.6934 10.6973 32.5924 13.7547 32.1351 16.7758C31.7682 19.2778 31.0663 21.3749 28.1044 21.5773C24.3927 21.842 20.7661 22.0549 17.0438 21.9874C17.0438 21.9718 17.0226 21.9718 17.0119 21.9718ZM13.0823 15.639C15.8793 14.0713 18.6232 12.5296 21.4042 10.9724C18.6019 9.40475 15.8634 7.86307 13.0823 6.30581V15.639Z" fill="black"/>
<path d="M86.0679 19.1274C85.9403 19.6361 85.8287 20.0358 85.717 20.4615H83.1008V0.761963H86.153V8.02923C86.3126 7.83198 86.3923 7.74892 86.4614 7.66068C86.9826 6.95991 87.6579 6.50311 88.53 6.32662C89.9179 6.06188 91.1037 6.65883 91.5238 7.96175C91.7949 8.77153 91.9704 9.63841 91.9917 10.4845C92.0342 12.6595 92.0023 14.8293 91.9226 17.0043C91.8907 17.6687 91.6833 18.3488 91.4227 18.9717C90.5666 21.0273 87.7696 21.3387 86.3817 19.5582C86.2966 19.4492 86.2168 19.3298 86.0679 19.1274ZM86.2168 13.7081V17.3106C86.2168 17.8971 86.5359 18.2553 87.1368 18.3903C87.727 18.5252 88.2056 18.302 88.4449 17.7674C88.5459 17.5442 88.647 17.3106 88.6523 17.077C88.7108 14.876 88.7639 12.6751 88.7799 10.469C88.7799 10.0589 88.6789 9.63322 88.5512 9.23352C88.312 8.51199 87.6526 8.29916 87.0038 8.71962C86.5146 9.04146 86.2168 9.49826 86.2168 10.1056V13.7081ZM77.9215 6.60692H81.1173V20.4718H78.6234C78.533 19.9476 78.4426 19.4077 78.3362 18.7744C78.1661 19.0184 78.065 19.1741 77.9587 19.3298C77.1291 20.4978 75.954 20.8975 74.5661 20.6847C73.3803 20.4978 72.6677 19.605 72.5082 18.1411C72.4603 17.7051 72.4391 17.2639 72.4391 16.8278C72.4284 13.5835 72.4391 10.3288 72.4391 7.08449V6.59654H75.6721V7.16235C75.6721 10.2977 75.6615 13.4278 75.6828 16.5631C75.6828 17.0095 75.7306 17.4715 75.8104 17.9179C75.9008 18.3747 76.2411 18.5408 76.6984 18.5097C77.4376 18.4526 77.948 17.9179 77.948 17.2016V7.21945C77.9215 7.01701 77.9215 6.83013 77.9215 6.60692ZM55.9174 6.59654H59.1292V7.18311C59.1292 10.3028 59.1186 13.4174 59.1399 16.5267C59.1399 16.9732 59.1824 17.4352 59.2781 17.8712C59.4004 18.3851 59.7089 18.5512 60.2353 18.4837C60.9638 18.3851 61.4051 17.892 61.4105 17.1704V7.24022V6.61731H64.6063V20.4718H62.123C62.0326 19.9579 61.9422 19.4285 61.8252 18.7588C61.6657 18.9924 61.5753 19.1274 61.4849 19.2675C60.6554 20.4563 59.4908 20.8923 58.071 20.6795C56.9331 20.5134 56.2365 19.6932 56.0238 18.3488C55.9653 17.9283 55.9228 17.513 55.9228 17.0926C55.9121 13.7237 55.9121 10.3392 55.9121 6.97029L55.9174 6.59654ZM54.269 13.9988C54.2584 14.466 54.2265 14.9331 54.1999 15.4003C54.0776 16.8019 54.0191 18.79 52.8598 19.8126C52.1207 20.4563 51.1848 20.6899 50.217 20.721C49.7863 20.7314 49.3503 20.7314 48.9195 20.6743C46.8829 20.3732 45.9364 19.4959 45.5961 17.3106C45.2079 14.7878 45.176 12.2235 45.6386 9.7007C46.1172 7.08968 47.7656 6.1657 50.3287 6.337C52.7216 6.50311 53.7904 8.03442 54.0722 10.2146C54.2265 11.4656 54.3009 12.7322 54.269 13.9988ZM51.0147 13.5212C51.0147 12.6336 51.0359 11.7407 51.004 10.8531C50.9828 10.3392 50.9136 9.8201 50.802 9.31139C50.6743 8.72481 50.2915 8.44451 49.8129 8.45489C49.3449 8.46527 49.0153 8.74558 48.8451 9.29062C48.7866 9.49307 48.7228 9.70071 48.7228 9.90315C48.7228 11.2943 48.7122 12.6907 48.7015 14.0818C48.6909 15.3796 48.5207 16.7396 48.9408 17.9802C49.0684 18.3591 49.3981 18.5668 49.8288 18.5668C50.2489 18.5668 50.5254 18.3643 50.6797 18.001C50.802 17.7207 50.9083 17.4144 50.9083 17.1133C50.9455 15.9194 51.0147 14.7203 51.0147 13.5212ZM40.906 10.9102C41.1878 9.56574 41.4537 8.25244 41.7462 6.93395C42.1131 5.25729 42.5225 3.58063 42.8841 1.89877C42.9745 1.48869 43.1447 1.39006 43.5435 1.40044C44.3996 1.43159 45.2717 1.41083 46.1863 1.41083C45.8885 2.48015 45.5961 3.49757 45.3089 4.49942C44.3996 7.64511 43.4903 10.8012 42.5917 13.9572C42.5225 14.2012 42.4906 14.466 42.4906 14.7255C42.48 16.4489 42.4906 18.1671 42.4906 19.8905V20.4511H39.3692C39.3586 20.2953 39.3373 20.1396 39.3373 19.9839C39.3373 19.008 39.2576 18.0269 39.348 17.0614C39.5766 14.7411 38.8215 12.6076 38.21 10.4482C37.4017 7.5932 36.5828 4.72782 35.7746 1.87282C35.732 1.73785 35.7161 1.59251 35.6735 1.4264H38.8587C39.5287 4.57728 40.2041 7.72816 40.906 10.9102ZM101.978 14.5282H96.5967C96.6552 15.582 96.6765 16.5838 96.7881 17.5753C96.8679 18.2657 97.2561 18.5616 97.8676 18.5668C98.5057 18.5772 98.8779 18.2657 99.0268 17.5805C99.0747 17.3573 99.1066 17.1341 99.1279 16.9057C99.1491 16.7032 99.1598 16.4852 99.1757 16.1945C100.085 16.2412 100.973 16.2932 101.85 16.3295C102.361 17.8089 101.441 19.7088 99.8936 20.2953C98.6759 20.7625 97.4262 20.7625 96.1819 20.4044C95.262 20.1396 94.576 19.5686 94.2676 18.6914C93.9805 17.8712 93.7093 17.0147 93.6508 16.1582C93.4912 14.0455 93.4328 11.912 93.7624 9.79414C93.8209 9.44116 93.922 9.10375 94.0336 8.76115C94.4803 7.34922 95.4534 6.48234 96.9583 6.337C97.7772 6.25913 98.6227 6.29028 99.4309 6.42524C100.739 6.64845 101.436 7.56724 101.739 8.77153C101.877 9.33734 101.978 9.91872 101.999 10.4949C102.005 11.8186 101.978 13.1319 101.978 14.5282ZM98.9205 12.7062C98.9205 11.6629 98.9311 10.6818 98.9098 9.69551C98.9098 9.46192 98.8194 9.21795 98.729 8.99474C98.5482 8.55871 98.1707 8.43931 97.7187 8.43931C97.2667 8.43931 96.9796 8.66252 96.8679 9.06222C96.5276 10.2613 96.6392 11.4864 96.6499 12.7166C97.4635 12.7062 98.2026 12.7062 98.9205 12.7062Z" fill="black"/>
<path d="M67.0734 3.95441H63.9094V1.45239H73.3533V3.93884H70.2107V20.4511H67.0787L67.0734 3.95441Z" fill="black"/>
</g>
<defs>
<clipPath id="clip0_51_2">
<rect width="102" height="22" fill="white"/>
</clipPath>
</defs>
</svg>
