<svg width="102" height="28" viewBox="0 0 102 28" fill="none" xmlns="http://www.w3.org/2000/svg">
<path d="M14.8867 11.7478C14.0855 11.7478 13.4529 12.4397 13.4529 13.301C13.4529 14.1623 14.0995 14.8542 14.8867 14.8542C15.688 14.8542 16.3206 14.1623 16.3206 13.301C16.3206 12.4397 15.6739 11.7478 14.8867 11.7478ZM9.75581 11.7478C8.95454 11.7478 8.32196 12.4397 8.32196 13.301C8.32196 14.1623 8.9686 14.8542 9.75581 14.8542C10.5571 14.8542 11.1897 14.1623 11.1897 13.301C11.2037 12.4397 10.5571 11.7478 9.75581 11.7478Z" fill="black"/>
<path d="M21.7186 0H2.88175C1.29327 0 0 1.29904 0 2.8946V21.8154C0 23.411 1.29327 24.71 2.88175 24.71H18.8228L18.0777 22.1261L19.8771 23.7922L21.578 25.3596L24.6144 28V2.8946C24.6003 1.29904 23.3071 0 21.7186 0ZM16.2924 18.2854C16.2924 18.2854 15.7864 17.6783 15.3647 17.1558C17.2062 16.6334 17.909 15.4897 17.909 15.4897C17.3327 15.8709 16.7845 16.1392 16.2924 16.3227C15.5896 16.6193 14.9148 16.8028 14.2541 16.9299C12.9046 17.1841 11.6676 17.1135 10.6133 16.9158C9.81202 16.7605 9.12321 16.5487 8.54686 16.3086C8.22354 16.1815 7.87211 16.0262 7.52067 15.8285C7.4785 15.8003 7.43633 15.7862 7.39416 15.7579C7.36604 15.7438 7.35198 15.7297 7.33793 15.7297C7.0849 15.5885 6.94432 15.4897 6.94432 15.4897C6.94432 15.4897 7.61907 16.6051 9.40436 17.1417C8.98264 17.6783 8.46251 18.2995 8.46251 18.2995C5.35584 18.2007 4.17503 16.1674 4.17503 16.1674C4.17503 11.6631 6.19928 8.00605 6.19928 8.00605C8.22354 6.49521 10.1353 6.53757 10.1353 6.53757L10.2759 6.70701C7.74559 7.42713 6.59289 8.54261 6.59289 8.54261C6.59289 8.54261 6.90215 8.37317 7.42227 8.14725C8.92641 7.48361 10.1213 7.31417 10.6133 7.25769C10.6976 7.24357 10.7679 7.22945 10.8523 7.22945C11.7098 7.11649 12.6797 7.08825 13.6918 7.20121C15.0273 7.35653 16.4611 7.75189 17.9231 8.54261C17.9231 8.54261 16.8126 7.48361 14.4228 6.76349L14.6196 6.53757C14.6196 6.53757 16.5455 6.49521 18.5557 8.00605C18.5557 8.00605 20.5799 11.6631 20.5799 16.1674C20.5799 16.1533 19.3991 18.1866 16.2924 18.2854ZM37.519 6.04337H32.852V11.3101L35.9587 14.12V9.00857H37.6174C38.6717 9.00857 39.1918 9.51689 39.1918 10.3359V14.2471C39.1918 15.0661 38.6998 15.6167 37.6174 15.6167H32.8379V18.5961H37.505C40.0072 18.6102 42.3547 17.3535 42.3547 14.473V10.2653C42.3688 7.32829 40.0212 6.04337 37.519 6.04337ZM61.9788 14.473V10.1523C61.9788 8.59909 64.7621 8.24609 65.6056 9.79929L68.1781 8.75441C67.1659 6.52345 65.3244 5.87393 63.7922 5.87393C61.29 5.87393 58.8159 7.32829 58.8159 10.1523V14.473C58.8159 17.3253 61.29 18.7514 63.7359 18.7514C65.3104 18.7514 67.194 17.9748 68.2343 15.9415L65.4791 14.6707C64.8043 16.4075 61.9788 15.9839 61.9788 14.473ZM53.4741 10.7453C52.5041 10.5335 51.8575 10.1805 51.8153 9.57337C51.8716 8.11901 54.1067 8.06253 55.414 9.46041L57.4804 7.86485C56.1872 6.28341 54.7252 5.85981 53.2211 5.85981C50.9297 5.85981 48.7087 7.15885 48.7087 9.61573C48.7087 12.002 50.5361 13.2869 52.5463 13.5976C53.5725 13.7388 54.7111 14.1483 54.683 14.8543C54.5987 16.1957 51.8434 16.1251 50.5923 14.6001L48.5962 16.4781C49.763 17.9889 51.3514 18.7514 52.8415 18.7514C55.1329 18.7514 57.6772 17.4241 57.7756 14.9955C57.9162 11.9314 55.6951 11.1548 53.4741 10.7453ZM44.0557 18.5819H47.2045V6.04337H44.0557V18.5819ZM97.1502 6.04337H92.4832V11.3101L95.5899 14.12V9.00857H97.2486C98.3029 9.00857 98.823 9.51689 98.823 10.3359V14.2471C98.823 15.0661 98.331 15.6167 97.2486 15.6167H92.4691V18.5961H97.1502C99.6524 18.6102 102 17.3535 102 14.473V10.2653C102 7.32829 99.6524 6.04337 97.1502 6.04337ZM74.2508 5.87393C71.6643 5.87393 69.0918 7.28593 69.0918 10.1805V14.4589C69.0918 17.3253 71.6783 18.7655 74.2789 18.7655C76.8655 18.7655 79.438 17.3253 79.438 14.4589V10.1805C79.438 7.30005 76.8374 5.87393 74.2508 5.87393ZM76.2751 14.4589C76.2751 15.3626 75.263 15.8285 74.2649 15.8285C73.2528 15.8285 72.2406 15.3908 72.2406 14.4589V10.1805C72.2406 9.26273 73.2246 8.76853 74.2087 8.76853C75.2348 8.76853 76.2751 9.20625 76.2751 10.1805V14.4589ZM90.7401 10.1805C90.6698 7.24357 88.6737 6.05749 86.1012 6.05749H81.1108V18.5961H84.3018V14.6142H84.8641L87.7599 18.5961H91.696L88.2941 14.2895C89.7982 13.8094 90.7401 12.4962 90.7401 10.1805ZM86.1574 11.8749H84.3018V9.00857H86.1574C88.1395 9.00857 88.1395 11.8749 86.1574 11.8749Z" fill="black"/>
</svg>
