<svg width="110" height="22" viewBox="0 0 110 22" fill="none" xmlns="http://www.w3.org/2000/svg">
<path d="M55.5581 19.5444C55.5581 19.9316 55.5581 20.0196 55.8157 20.2572L57.2588 21.7004V21.762H50.8605V18.99C50.2164 20.8169 48.5132 22.0251 46.6177 21.9996C43.3284 21.9996 40.9408 19.3596 40.9408 14.502C40.9408 9.95246 43.5172 6.91647 47.133 6.91647C48.7358 6.81322 50.2274 7.75922 50.8518 9.27486V3.15919C50.8753 3.02066 50.8604 2.87826 50.8088 2.74778C50.7573 2.6173 50.6711 2.50385 50.5598 2.41999L49.1856 1.0648V1.0032L55.5581 0.237599V19.5444ZM50.8605 18.6644V9.53886C50.6332 9.24839 50.343 9.01477 50.0124 8.85608C49.6818 8.69738 49.3196 8.61786 48.9538 8.62367C47.3993 8.62367 45.8963 10.0669 45.8963 14.3524C45.8963 18.3652 47.1932 19.782 48.8079 19.782C49.2127 19.7728 49.6096 19.6668 49.9663 19.4726C50.323 19.2783 50.6293 19.0014 50.8602 18.6644H50.8605ZM59.8009 21.762V9.44206C59.8212 9.30689 59.8083 9.16873 59.7633 9.03981C59.7184 8.91089 59.6428 8.79516 59.5433 8.70287L58.126 7.20687V7.14527H64.5246V19.6412C64.5246 20.0284 64.5246 20.1164 64.7822 20.354L66.1908 21.7092V21.7708L59.8009 21.762ZM59.5691 2.63969C59.5691 1.18183 60.7226 0 62.1454 0C63.5681 0 64.722 1.18213 64.722 2.63999C64.722 4.09785 63.5684 5.27998 62.1457 5.27998C60.7229 5.27998 59.5691 4.09785 59.5691 2.63999V2.63969ZM81.787 19.518C81.787 19.9052 81.787 20.0196 82.0447 20.2572L83.4877 21.7004V21.762H77.055V18.6028C76.4691 20.6004 74.6845 21.9761 72.6492 21.9996C69.7979 21.9996 68.2692 19.87 68.2692 15.8396C68.2692 13.8948 68.2692 11.7653 68.3291 9.37166C68.3524 9.24037 68.3408 9.10518 68.2955 8.97993C68.2502 8.85468 68.1729 8.74387 68.0715 8.65887L66.6545 7.20687V7.14527H73.0012V15.1796C73.0012 17.8196 73.3793 19.5796 74.9937 19.5796C75.422 19.5513 75.8365 19.4149 76.1995 19.1829C76.5625 18.9508 76.8625 18.6304 77.0721 18.2508V9.45086C77.0923 9.31569 77.0794 9.17753 77.0345 9.04861C76.9896 8.91969 76.914 8.80396 76.8144 8.71167L75.3888 7.20687V7.14527H81.787V19.518ZM103.567 21.762C103.567 21.2868 103.653 15.2324 103.653 13.842C103.653 11.2021 103.249 9.38046 101.437 9.38046C100.986 9.39546 100.545 9.51802 100.15 9.7382C99.7544 9.95838 99.4158 10.27 99.1615 10.6477C99.3433 11.4705 99.4296 12.3123 99.4192 13.1556C99.4192 14.986 99.3589 17.318 99.3332 19.65C99.3099 19.7813 99.3215 19.9165 99.3668 20.0418C99.4121 20.167 99.4894 20.2778 99.5908 20.3628L101.034 21.718V21.7796H94.5754C94.5754 21.3396 94.6611 15.25 94.6611 13.8596C94.6611 11.1757 94.2576 9.39806 92.4712 9.39806C92.0365 9.41491 91.613 9.54322 91.2405 9.77099C90.868 9.99876 90.5586 10.3186 90.3413 10.7005V19.6764C90.3413 20.0636 90.3413 20.1516 90.5989 20.3892L92.0075 21.7444V21.806H85.6176V9.48606C85.6379 9.35089 85.625 9.21273 85.5801 9.08381C85.5351 8.95489 85.4595 8.83916 85.36 8.74687L83.9427 7.20687V7.14527H90.3413V10.2781C90.9347 8.21007 92.8249 6.82026 94.9274 6.90767C97.0573 6.90767 98.5001 8.12207 99.11 10.4277C99.7874 8.30129 101.737 6.87453 103.919 6.90767C106.771 6.90767 108.385 9.06366 108.385 13.138C108.385 15.0828 108.325 17.3004 108.3 19.6324C108.275 19.7671 108.289 19.9061 108.341 20.0327C108.393 20.1592 108.48 20.2678 108.591 20.3452L110 21.7004V21.762H103.567ZM23.1886 19.8436L25.0867 21.7004V21.762H15.4591V21.7004L17.3916 19.8436C17.493 19.7586 17.5703 19.6478 17.6156 19.5226C17.6609 19.3973 17.6725 19.2621 17.6492 19.1308V7.25967C17.6492 6.75807 17.6492 6.08048 17.7349 5.49968L11.242 21.9999H11.165L4.44024 6.81997C4.29405 6.44157 4.25121 6.41517 4.15655 6.15997V16.1127C4.07608 16.7785 4.18653 17.4537 4.47468 18.0575L7.17982 21.7007V21.7623H0V21.7007L2.70542 18.0487C2.99124 17.4473 3.10142 16.7755 3.02297 16.1127V5.11278C3.06727 4.57203 2.90778 4.03436 2.57661 3.60798L0.661447 1.0648V1.0032H7.53211L13.2863 13.8599L18.3535 1.0032H25.078V1.0648L23.1886 3.22078C23.0773 3.30464 22.9911 3.4181 22.9395 3.54858C22.8879 3.67906 22.8731 3.82145 22.8965 3.95998V19.1311C22.8719 19.2659 22.8864 19.4049 22.9383 19.5315C22.9902 19.658 23.0773 19.7665 23.1889 19.8439L23.1886 19.8436ZM30.7207 13.8948V13.9564C30.7207 17.7228 32.6188 19.2364 34.8431 19.2364C36.7003 19.3012 38.4195 18.2341 39.2231 16.5172H39.2833C38.5104 20.2396 36.2601 21.9996 32.8935 21.9996C29.2606 21.9996 25.8338 19.7556 25.8338 14.5548C25.8338 9.09006 29.2693 6.90767 33.0651 6.90767C36.1228 6.90767 39.3777 8.38607 39.3777 13.138V13.8948H30.7207ZM30.7207 13.138H34.9548V12.3724C34.9548 8.50047 34.1732 7.47087 32.9965 7.47087C31.5709 7.47087 30.7036 9.01086 30.7036 13.138H30.7207Z" fill="black"/>
</svg>
