<svg width="108" height="28" viewBox="0 0 108 28" fill="none" xmlns="http://www.w3.org/2000/svg">
<path d="M0 23.4541H11.8631V19.6416H4.29389V5.09773H0V23.4541ZM17.8693 23.4541V10.8106H13.5757V23.4541H17.8693ZM15.7229 9.08467C17.2198 9.08467 18.1518 8.11373 18.1518 6.89969C18.124 5.65922 17.2198 4.71582 15.7514 4.71582C14.2826 4.71582 13.3221 5.65958 13.3221 6.89969C13.3221 8.11373 14.2541 9.08467 15.6947 9.08467H15.7229ZM19.8626 23.4541H24.1561V16.3931C24.1561 16.0153 24.1838 15.6374 24.2975 15.3682C24.6074 14.6132 25.3139 13.831 26.5002 13.831C28.0542 13.831 28.6758 14.9907 28.6758 16.6895V23.4537H32.9686V16.2044C32.9686 12.3206 30.8503 10.5135 28.0253 10.5135C25.7093 10.5135 24.6922 11.7808 24.1272 12.6442H24.1561V10.8106H19.8626C19.9192 11.9971 19.8626 23.4541 19.8626 23.4541ZM39.0258 5.09773H34.7323V23.4541H39.0258V19.3548L40.0988 18.0324L43.4604 23.4541H48.7421L43.0935 15.6054L48.036 10.266H42.8676C42.8676 10.266 39.3368 15.0429 39.0258 15.6098V5.09773Z" fill="black"/>
<path d="M60.2236 18.1801C60.2802 17.8555 60.365 17.2327 60.365 16.5283C60.365 13.26 58.67 9.94182 54.2073 9.94182C49.4335 9.94182 47.2301 13.6372 47.2301 16.9888C47.2301 21.134 49.9137 23.7226 54.6023 23.7226C56.4669 23.7226 58.1894 23.4538 59.6023 22.8872L59.0373 20.1117C57.8787 20.4877 56.6924 20.6761 55.224 20.6761C53.2187 20.6761 51.4677 19.87 51.3263 18.1529L60.2236 18.1794V18.1801ZM51.2981 15.3371C51.4111 14.2582 52.146 12.6662 53.9818 12.6662C55.9304 12.6662 56.3829 14.3657 56.3829 15.3371H51.2985H51.2981ZM70.9626 5.09778V11.4522H70.906C70.2843 10.5628 68.985 9.96936 67.263 9.96936C63.9577 9.96936 61.0486 12.5583 61.0763 16.9811C61.0763 21.0808 63.7037 23.7509 66.9797 23.7509C68.7596 23.7509 70.4539 22.9951 71.3018 21.5387H71.3862L71.5561 23.4541H75.369C75.3128 22.564 75.2557 21.0268 75.2557 19.5164V5.09741H70.9622L70.9626 5.09778ZM70.9626 17.6017C70.9626 17.9249 70.9345 18.2491 70.8774 18.5179C70.6242 19.6784 69.6071 20.4866 68.3641 20.4866C66.585 20.4866 65.4265 19.0846 65.4265 16.8731C65.4265 14.7969 66.4158 13.1245 68.3926 13.1245C69.72 13.1245 70.652 14.0143 70.9063 15.1197C70.9626 15.3631 70.9626 15.633 70.9626 15.8754V17.6013V17.6017Z" fill="black"/>
<path fill-rule="evenodd" clip-rule="evenodd" d="M81.6747 0C80.5146 0 79.5737 0.898594 79.5737 2.00577V25.995C79.5737 27.1021 80.5146 28 81.6747 28H105.899C107.059 28 108 27.1021 108 25.9946V2.00577C108 0.898594 107.059 0 105.899 0H81.6747ZM88.1907 10.7951V23.4386H83.8972V10.7951H88.1907ZM88.4736 6.88491C88.4736 8.09822 87.5417 9.06915 86.0447 9.06915H86.0444H86.0166C84.5755 9.06915 83.644 8.09822 83.644 6.88491C83.644 5.64407 84.6037 4.70031 86.0732 4.70031C87.5417 4.70031 88.4455 5.64407 88.4736 6.88491ZM94.8602 23.4386H90.5671C90.5675 23.364 90.6232 11.9777 90.5675 10.7955H94.8606V12.5853C95.4312 11.724 96.4527 10.4988 98.7302 10.4988C101.555 10.4988 103.673 12.3059 103.673 16.1892V23.4386H99.3796V16.6754C99.3796 14.9756 98.7579 13.8162 97.2047 13.8162C96.0184 13.8162 95.3119 14.5981 95.0017 15.3534C94.8884 15.623 94.8602 16.0012 94.8602 16.3787V23.4386ZM90.5671 23.4389V23.4386V23.4389Z" fill="black"/>
</svg>
