<svg width="90" height="30" viewBox="0 0 90 30" fill="none" xmlns="http://www.w3.org/2000/svg">
<g clip-path="url(#clip0_51_21)">
<path d="M11.0845 0H11.8849C14.6635 0.061682 17.3967 1.2028 19.3599 3.22288C18.635 3.97849 17.8951 4.70325 17.1853 5.45885C16.0829 4.4411 14.7541 3.65466 13.3044 3.37709C11.16 2.91447 8.8496 3.33083 7.05258 4.57989C5.08946 5.89063 3.76058 8.11118 3.47366 10.4859C3.15654 12.8298 3.80588 15.2971 5.30087 17.1167C6.73546 18.8901 8.9251 20.0004 11.1902 20.0775C13.3044 20.2008 15.5091 19.5378 17.0494 18.0266C18.2575 16.9625 18.8162 15.3434 18.9974 13.7705C16.4907 13.7705 13.9839 13.7859 11.4772 13.7705V10.5939H22.0327C22.5764 14.0018 21.7911 17.8415 19.2541 20.2779C17.5628 22.005 15.2222 23.0228 12.8362 23.2233C10.5258 23.4546 8.13985 23.0074 6.08612 21.8663C3.62467 20.5247 1.66154 18.2579 0.695083 15.5901C-0.210974 13.1383 -0.226075 10.3626 0.619578 7.89529C1.38973 5.6439 2.86962 3.65466 4.77234 2.26681C6.59955 0.894388 8.81939 0.138784 11.0845 0Z" fill="black"/>
<path d="M71.6397 0.802002H74.8713V22.8224C73.7991 22.8224 72.7119 22.8378 71.6397 22.807C71.6548 15.4823 71.6397 8.14214 71.6397 0.802002Z" fill="black"/>
<path d="M29.2204 8.43513C31.2137 8.04962 33.3731 8.48139 35.0191 9.6996C36.5141 10.779 37.5561 12.4753 37.8732 14.3257C38.2809 16.4691 37.7675 18.813 36.4084 20.5093C34.9436 22.406 32.5426 23.4237 30.2019 23.2695C28.0576 23.1462 25.9737 22.0513 24.7052 20.2626C23.2706 18.2887 22.9233 15.5748 23.7085 13.2617C24.4938 10.779 26.7136 8.88232 29.2204 8.43513ZM29.6734 11.365C28.8579 11.5809 28.1029 12.0589 27.5593 12.7374C26.0945 14.5262 26.1851 17.4406 27.8009 19.106C28.722 20.0621 30.1113 20.5093 31.3949 20.2471C32.5879 20.0312 33.6299 19.214 34.2037 18.1345C35.2004 16.2995 34.9134 13.7706 33.3882 12.3365C32.4067 11.4113 30.9721 11.0258 29.6734 11.365Z" fill="black"/>
<path d="M45.2262 8.43505C47.5064 7.98785 49.9981 8.63551 51.7045 10.2701C54.4831 12.8145 54.7851 17.5794 52.4142 20.5093C50.9796 22.3598 48.6541 23.3775 46.3588 23.2696C44.1691 23.2079 42.0097 22.0976 40.711 20.2626C39.2462 18.2425 38.9291 15.4668 39.7596 13.1075C40.5902 10.7019 42.7647 8.86682 45.2262 8.43505ZM45.6792 11.3649C44.8638 11.5808 44.1087 12.0589 43.5651 12.7219C42.1154 14.4799 42.1758 17.3481 43.7312 19.0289C44.6523 20.0313 46.0869 20.5247 47.4158 20.2472C48.5937 20.0159 49.6508 19.214 50.2246 18.1345C51.2062 16.2841 50.9192 13.7551 49.3789 12.321C48.3974 11.3958 46.9628 11.0257 45.6792 11.3649Z" fill="black"/>
<path d="M58.8036 9.32967C60.5402 8.21939 62.8506 7.91098 64.7232 8.86705C65.3121 9.1292 65.7953 9.57639 66.2635 10.0236C66.2786 9.60724 66.2635 9.17546 66.2786 8.74369C67.2903 8.75911 68.3021 8.74369 69.329 8.75911V22.36C69.3139 24.4109 68.8004 26.5852 67.3507 28.0809C65.7651 29.7309 63.3339 30.2398 61.1442 29.9006C58.8036 29.5459 56.765 27.8034 55.8589 25.5983C56.765 25.1511 57.7163 24.7964 58.6526 24.38C59.1811 25.6445 60.2533 26.7239 61.5973 26.9707C62.9412 27.2174 64.4966 26.8781 65.3725 25.737C66.3088 24.5651 66.3088 22.9614 66.2635 21.5273C65.5688 22.2212 64.7685 22.838 63.802 23.0693C61.703 23.6707 59.3925 22.9305 57.7767 21.481C56.1458 20.0315 55.1793 17.7955 55.27 15.575C55.3153 13.0614 56.7045 10.6404 58.8036 9.32967ZM61.9295 11.3035C61.0083 11.4577 60.1476 11.982 59.5586 12.7067C58.1391 14.4338 58.1391 17.1941 59.5737 18.8904C60.3892 19.8927 61.703 20.4478 62.9715 20.309C64.1644 20.1857 65.2668 19.4146 65.8557 18.3506C66.8524 16.5464 66.6863 14.0946 65.3423 12.5217C64.5118 11.5502 63.1829 11.0722 61.9295 11.3035Z" fill="black"/>
<path d="M78.7498 10.1157C80.5619 8.38863 83.3556 7.80266 85.6812 8.71247C87.8859 9.56059 89.2903 11.704 90 13.9092C86.7231 15.297 83.4613 16.6694 80.1844 18.0573C80.6374 18.9362 81.3321 19.7381 82.2683 20.0619C83.5821 20.54 85.1526 20.3703 86.255 19.476C86.6929 19.1367 87.0402 18.6895 87.3725 18.2577C88.203 18.8283 89.0336 19.3834 89.8641 19.954C88.6862 21.7582 86.708 23.0227 84.5788 23.2231C82.223 23.5161 79.7163 22.5909 78.1911 20.7096C75.6843 17.7489 75.9259 12.7835 78.7498 10.1157ZM80.3656 12.9685C79.8522 13.7241 79.6408 14.6493 79.6559 15.5592C81.8455 14.6339 84.0352 13.7087 86.2248 12.7681C85.8624 11.9045 84.9865 11.3802 84.0956 11.2414C82.661 10.9793 81.166 11.7657 80.3656 12.9685Z" fill="black"/>
</g>
<defs>
<clipPath id="clip0_51_21">
<rect width="90" height="30" fill="white"/>
</clipPath>
</defs>
</svg>
