<svg width="110" height="34" viewBox="0 0 110 34" fill="none" xmlns="http://www.w3.org/2000/svg">
<path d="M16.4959 0C7.38565 0 0 7.61111 0 16.9997C0 26.3893 7.38565 34 16.4959 34C25.6065 34 32.9918 26.3893 32.9918 16.9997C32.9918 7.61171 25.6069 0.000811382 16.4957 0.000811382L16.4959 0ZM24.0608 24.5184C23.7645 25.0192 23.1314 25.1762 22.647 24.871C18.7734 22.4312 13.8977 21.88 8.15564 23.2318C7.60232 23.3626 7.05077 23.0051 6.92471 22.435C6.79805 21.8648 7.14335 21.2964 7.69805 21.1665C13.9818 19.686 19.3718 20.3232 23.7198 23.0613C24.2044 23.3678 24.358 24.0195 24.0606 24.5188L24.0608 24.5184ZM26.0798 19.8902C25.7068 20.514 24.9153 20.7097 24.3108 20.3267C19.8777 17.5184 13.1178 16.7049 7.87318 18.3456C7.19299 18.5573 6.4746 18.1623 6.26816 17.4625C6.0633 16.7616 6.44683 16.0227 7.12583 15.8095C13.1167 13.9362 20.5641 14.8436 25.6561 18.0683C26.2609 18.452 26.4519 19.268 26.0796 19.8904L26.0798 19.8902ZM26.2532 15.0702C20.9358 11.8159 12.165 11.5166 7.08897 13.1043C6.27387 13.3591 5.41188 12.8849 5.16486 12.0448C4.91784 11.2044 5.3776 10.3167 6.1933 10.0613C12.0202 8.23838 21.7068 8.59058 27.8279 12.3353C28.561 12.7838 28.8015 13.7596 28.367 14.5141C27.9336 15.2697 26.9842 15.5188 26.2534 15.0702H26.2532ZM44.8798 15.6938C42.0317 14.9938 41.5246 14.5026 41.5246 13.4703C41.5246 12.4951 42.4156 11.8388 43.7405 11.8388C45.0248 11.8388 46.2983 12.3372 47.6334 13.3631C47.6738 13.3942 47.7245 13.4066 47.7743 13.3985C47.8241 13.3907 47.8682 13.3625 47.8974 13.3201L49.2881 11.2998C49.3452 11.2166 49.3297 11.1019 49.2526 11.0384C47.6636 9.72435 45.8742 9.0855 43.7827 9.0855C40.7074 9.0855 38.5593 10.9874 38.5593 13.7086C38.5593 16.6268 40.4123 17.6601 43.6144 18.4576C46.3399 19.1046 46.7998 19.6466 46.7998 20.6155C46.7998 21.6892 45.8697 22.3567 44.3728 22.3567C42.7103 22.3567 41.3543 21.7796 39.8373 20.4257C39.7997 20.3922 39.7481 20.377 39.7004 20.3799C39.6502 20.3841 39.6043 20.4081 39.5724 20.4477L38.013 22.3601C37.9476 22.4395 37.9559 22.5581 38.0316 22.6267C39.7965 24.2505 41.9673 25.1082 44.3098 25.1082C47.6236 25.1082 49.765 23.2422 49.765 20.3541C49.7709 17.9161 48.3546 16.5661 44.8858 15.6964L44.8798 15.6938ZM57.2621 12.799C55.8257 12.799 54.6476 13.382 53.6761 14.5767V13.232C53.6761 13.1258 53.5926 13.0393 53.4897 13.0393H50.9394C50.8364 13.0393 50.7531 13.1258 50.7531 13.232V28.1733C50.7531 28.2794 50.8364 28.3659 50.9394 28.3659H53.4897C53.5926 28.3659 53.6761 28.2794 53.6761 28.1733V23.4569C54.6478 24.5808 55.8261 25.1299 57.2621 25.1299C59.931 25.1299 62.6329 23.0126 62.6329 18.9651C62.6368 14.9167 59.9342 12.7988 57.2651 12.7988L57.2621 12.799ZM59.6673 18.9651C59.6673 21.0262 58.4354 22.4645 56.6714 22.4645C54.9275 22.4645 53.6121 20.9608 53.6121 18.9651C53.6121 16.9697 54.9275 15.4658 56.6714 15.4658C58.4068 15.4656 59.6675 16.937 59.6675 18.9649L59.6673 18.9651ZM69.5578 12.799C66.1206 12.799 63.4279 15.5265 63.4279 19.0092C63.4279 22.4539 66.1021 25.1528 69.5156 25.1528C72.965 25.1528 75.666 22.4344 75.666 18.9651C75.666 15.5078 72.9831 12.7994 69.5576 12.7994L69.5578 12.799ZM69.5578 22.485C67.7296 22.485 66.3513 20.9712 66.3513 18.9641C66.3513 16.9485 67.6819 15.4859 69.5156 15.4859C71.3556 15.4859 72.7432 16.9997 72.7432 19.0082C72.7432 21.0234 71.4037 22.485 69.5579 22.485H69.5578ZM83.0057 13.0394H80.1993V10.0824C80.1993 9.97648 80.1162 9.89 80.0132 9.89H77.4633C77.36 9.89 77.2763 9.97648 77.2763 10.0824V13.0394H76.0501C75.9475 13.0394 75.8643 13.1258 75.8643 13.232V15.4908C75.8643 15.5968 75.9475 15.6834 76.0501 15.6834H77.2763V21.528C77.2763 23.8899 78.417 25.0875 80.6668 25.0875C81.5816 25.0875 82.3405 24.8928 83.0558 24.4748C83.1139 24.4413 83.1499 24.3768 83.1499 24.3081V22.1571C83.1499 22.0908 83.1164 22.028 83.0613 21.9933C83.0057 21.9574 82.9366 21.9556 82.8797 21.9846C82.3884 22.2394 81.9135 22.3569 81.3826 22.3569C80.5643 22.3569 80.1993 21.974 80.1993 21.116V15.6845H83.0057C83.1087 15.6845 83.1917 15.598 83.1917 15.4918V13.2332C83.1956 13.1271 83.1129 13.0406 83.0085 13.0406L83.0057 13.0394ZM92.7839 13.0509V12.6877C92.7839 11.6193 93.1815 11.1429 94.073 11.1429C94.6047 11.1429 95.0317 11.2517 95.51 11.4161C95.5689 11.4352 95.6303 11.4257 95.6782 11.3894C95.7275 11.353 95.7552 11.2948 95.7552 11.233V9.0183C95.7552 8.93364 95.7024 8.85874 95.6232 8.83377C95.118 8.67887 94.4715 8.51992 93.5035 8.51992C91.148 8.51992 89.9029 9.88694 89.9029 12.4717V13.028H88.6776C88.5748 13.028 88.4905 13.1144 88.4905 13.2204V15.4908C88.4905 15.5967 88.5748 15.6834 88.6776 15.6834H89.9029V24.6985C89.9029 24.8046 89.986 24.8911 90.0888 24.8911H92.6392C92.7422 24.8911 92.8261 24.8046 92.8261 24.6985V15.684H95.2072L98.8547 24.6969C98.4407 25.6439 98.0335 25.8323 97.4776 25.8323C97.0283 25.8323 96.5552 25.694 96.0714 25.4212C96.0259 25.3954 95.9719 25.3911 95.9229 25.4068C95.8742 25.4244 95.8332 25.4618 95.8126 25.5105L94.9482 27.4648C94.907 27.5572 94.9423 27.6656 95.0286 27.7135C95.9309 28.2171 96.7455 28.4321 97.7522 28.4321C99.6354 28.4321 100.676 27.5281 101.594 25.0962L106.018 13.314C106.04 13.2547 106.034 13.1877 105.999 13.1352C105.963 13.083 105.907 13.0515 105.845 13.0515H103.19C103.111 13.0515 103.039 13.1037 103.013 13.1806L100.294 21.1866L97.3148 13.1754C97.2876 13.1009 97.2178 13.0515 97.1406 13.0515H92.7834L92.7839 13.0509ZM87.1148 13.0394H84.5645C84.4614 13.0394 84.3775 13.1258 84.3775 13.232V24.6985C84.3775 24.8047 84.4614 24.8911 84.5645 24.8911H87.1148C87.2176 24.8911 87.3017 24.8047 87.3017 24.6985V13.2328C87.3018 13.2075 87.297 13.1824 87.2876 13.159C87.2782 13.1355 87.2644 13.1143 87.247 13.0964C87.2296 13.0785 87.209 13.0643 87.1862 13.0546C87.1635 13.045 87.1392 13.0401 87.1146 13.0402L87.1148 13.0394ZM85.8541 7.81838C84.8438 7.81838 84.0239 8.66122 84.0239 9.70242C84.0239 10.7442 84.844 11.5881 85.8541 11.5881C86.864 11.5881 87.6831 10.7442 87.6831 9.70242C87.6831 8.66143 86.8636 7.81838 85.8551 7.81838H85.8541ZM108.196 16.726C107.186 16.726 106.401 15.8907 106.401 14.8763C106.401 13.8619 107.197 13.017 108.205 13.017C109.215 13.017 110 13.8522 110 14.8657C110 15.8801 109.204 16.726 108.196 16.726ZM108.206 13.2009C107.286 13.2009 106.591 13.9541 106.591 14.8763C106.591 15.7981 107.281 16.5411 108.196 16.5411C109.116 16.5411 109.812 15.7886 109.812 14.8657C109.812 13.9439 109.12 13.2009 108.206 13.2009ZM108.604 15.0559L109.111 15.7884H108.683L108.226 15.1165H107.833V15.7884H107.475V13.8469H108.315C108.753 13.8469 109.041 14.0777 109.041 14.4662C109.042 14.7846 108.863 14.979 108.605 15.056H108.604V15.0559ZM108.3 14.18H107.833V14.7941H108.3C108.533 14.7941 108.673 14.6766 108.673 14.4868C108.673 14.287 108.533 14.18 108.3 14.18Z" fill="black"/>
</svg>
