<svg width="110" height="28" viewBox="0 0 110 28" fill="none" xmlns="http://www.w3.org/2000/svg">
<path d="M35.519 10.9493C35.519 8.95229 33.6001 6.83128 30.2796 6.83128C26.5508 6.83128 22.4545 9.59961 21.8285 15.1225C21.1889 20.7004 24.6183 23.1795 28.075 23.1795C31.5316 23.1795 33.3416 21.816 35.1924 19.998C33.6001 17.9734 31.5452 18.91 31.1506 19.1166C30.7151 19.3369 30.1571 19.6399 29.014 19.6399C27.6803 19.6399 26.3194 19.0339 26.3194 16.5135C34.8658 15.6596 35.519 12.9464 35.519 10.9493ZM31.2867 11.2799C31.2322 11.8997 30.9873 12.9602 26.6597 13.5524C27.5714 10.2745 29.3134 10.0266 30.1163 10.0266C30.8648 10.0266 31.3411 10.6188 31.2867 11.2799ZM16.8069 11.817C16.8069 11.817 14.9697 17.6567 14.82 18.1387C14.7656 17.6429 13.4183 7.16183 13.4183 7.16183C10.2883 7.16183 8.61438 9.42056 7.7298 11.8032C7.7298 11.8032 5.49796 17.6567 5.30744 18.1525C5.29383 17.698 4.96722 11.8721 4.96722 11.8721C4.77669 8.95229 2.13658 7.1756 0 7.1756L2.58567 23.0556C5.8654 23.0418 7.63454 20.7969 8.55994 18.4142C8.55994 18.4142 10.5332 13.2494 10.6149 13.0152C10.6285 13.2356 12.0302 23.0556 12.0302 23.0556C15.3235 23.0556 17.0927 20.9484 18.0453 18.6483L22.6587 7.1756C19.4062 7.1756 17.6915 9.42056 16.8069 11.817ZM47.6036 6.80374C45.5759 6.80374 44.0245 7.91933 42.7181 9.55829V9.54452L43.8884 0C41.1939 0 39.0028 2.36891 38.581 5.89474L36.5397 22.9316C38.0911 22.9316 39.7377 22.4771 40.6223 21.3202C41.4116 22.3532 42.5956 23.1795 44.3511 23.1795C48.8964 23.1795 52.0129 17.8357 52.0129 12.8224C51.9857 8.24988 49.7946 6.80374 47.6036 6.80374ZM47.1817 14.9985C46.7054 17.7944 45.1676 19.695 43.6843 19.695C42.1873 19.695 41.5477 19.0202 41.5477 19.0202C41.8335 16.5686 42.0104 15.0674 42.5547 13.7727C43.0991 12.4781 44.3919 10.4122 45.7392 10.4122C47.0593 10.4122 47.6581 12.1889 47.1817 14.9985ZM63.3626 7.1756H60.1918L60.2054 7.01033C60.4231 4.91687 60.913 3.81505 62.5325 3.63601C63.6348 3.52582 64.1247 2.94737 64.2472 2.31382C64.3424 1.818 64.6418 0.0964092 64.6418 0.0964092C58.2729 0.055091 56.2724 2.83719 55.7553 7.07919L55.7417 7.1756H55.6736C54.6394 7.1756 53.4962 8.36006 53.3057 9.86129L53.2377 10.4122H55.3606L53.5779 25.3143L53.0335 27.9862C53.1016 27.9862 53.1832 28 53.2513 28C56.2316 27.8898 58.1368 25.5071 58.5587 22.0502L59.9468 10.4122H60.9402C61.9201 10.4122 63.0632 9.42056 63.2674 7.76783L63.3626 7.1756ZM79.8565 6.90015C76.1957 6.90015 72.7391 9.62715 71.6776 13.9105C70.6161 18.1938 72.2219 23.2622 77.611 23.2622C82.9865 23.2622 86.0893 17.9872 86.0893 13.5937C86.0893 9.22774 83.1634 6.90015 79.8565 6.90015ZM81.3399 14.8608C81.1493 16.8028 80.3056 19.7501 77.9921 19.7501C75.665 19.7501 75.9916 16.3069 76.2229 14.668C76.4679 12.9188 77.4341 10.426 79.5163 10.426C81.3807 10.426 81.5576 12.6709 81.3399 14.8608ZM104.175 11.817C104.175 11.817 102.338 17.6567 102.189 18.1387C102.134 17.6429 100.787 7.16183 100.787 7.16183C97.6568 7.16183 95.9829 9.42056 95.0984 11.8032C95.0984 11.8032 92.8665 17.6567 92.676 18.1525C92.6624 17.698 92.3358 11.8721 92.3358 11.8721C92.1452 8.95229 89.5051 7.1756 87.3686 7.1756L89.9406 23.0556C93.2203 23.0418 94.9895 20.7969 95.9149 18.4142C95.9149 18.4142 97.8882 13.2494 97.9562 13.0152C97.9834 13.2356 99.3715 23.0556 99.3715 23.0556C102.665 23.0556 104.434 20.9484 105.387 18.6483L110 7.1756C106.761 7.1756 105.046 9.42056 104.175 11.817ZM66.3566 0.0964092L63.6892 21.8711L63.1449 24.5568C63.2129 24.5568 63.2946 24.5706 63.3626 24.5706C66.2341 24.5293 68.2754 21.9813 68.6564 18.7723L70.1942 6.28037C70.6569 2.46532 68.4115 0.0964092 66.3566 0.0964092Z" fill="black"/>
</svg>
