<svg width="100" height="32" viewBox="0 0 100 32" fill="none" xmlns="http://www.w3.org/2000/svg">
<g clip-path="url(#clip0_51_10)">
<path fill-rule="evenodd" clip-rule="evenodd" d="M32.3054 16C32.3054 24.8366 25.0736 32 16.1527 32C7.23181 32 0 24.8366 0 16C0 7.16344 7.23181 0 16.1527 0C25.0736 0 32.3054 7.16344 32.3054 16ZM24.48 13.7489C25.7849 13.7051 26.877 14.7113 26.9252 15.9999C26.9412 16.8987 26.4313 17.726 25.6203 18.1277C25.6363 18.3623 25.6363 18.597 25.6203 18.8316C25.6203 22.419 21.4044 25.3303 16.2049 25.3303C11.0053 25.3303 6.7895 22.415 6.7895 18.8316C6.77344 18.597 6.77344 18.3623 6.7895 18.1277C6.55261 18.0243 6.33982 17.8771 6.15512 17.7061C5.20355 16.8232 5.15938 15.3437 6.05073 14.4051C6.94208 13.4625 8.43569 13.4187 9.38325 14.3017C11.2463 13.0529 13.4345 12.3688 15.6829 12.333L16.8754 6.78092V6.77296C16.9356 6.50252 17.2046 6.33548 17.4737 6.39514L21.4325 7.17863C21.6855 6.74115 22.1432 6.44684 22.6531 6.39514C23.5405 6.29968 24.3354 6.93603 24.4318 7.81497C24.5282 8.69392 23.8857 9.48139 22.9984 9.57684C22.1111 9.67229 21.3161 9.03595 21.2197 8.157L17.7627 7.43714L16.7148 12.4284C18.9351 12.4762 21.0953 13.1563 22.9342 14.3971C23.3517 14.0034 23.9018 13.7687 24.48 13.7489ZM12.3906 15.9999C11.4992 15.9999 10.7725 16.7198 10.7725 17.6027C10.7725 18.4856 11.4952 19.1975 12.3906 19.2055C13.2819 19.2055 14.0086 18.4856 14.0086 17.6027C14.0086 16.7198 13.2819 15.9999 12.3906 15.9999ZM16.1647 23.2343C17.6021 23.294 19.0074 22.8565 20.1557 22.0014V22.065C20.3324 21.894 20.3364 21.6077 20.1638 21.4327C19.9911 21.2577 19.702 21.2537 19.5254 21.4247C18.5417 22.1207 17.3532 22.4627 16.1487 22.3991C14.9441 22.4548 13.7597 22.0968 12.788 21.3929C12.6234 21.2617 12.3946 21.2617 12.234 21.3929C12.0493 21.544 12.0212 21.8185 12.1737 22.0014C13.3221 22.8565 14.7273 23.294 16.1647 23.2343ZM18.2486 17.6584C18.2486 18.5413 18.9753 19.2612 19.8666 19.2612L19.8546 19.3208H19.9349C20.8263 19.285 21.5209 18.5413 21.4847 17.6584C21.4847 16.7754 20.758 16.0556 19.8666 16.0556C18.9753 16.0556 18.2486 16.7754 18.2486 17.6584Z" fill="black"/>
<path d="M90.1187 11.1204C91.3339 11.1204 92.319 10.1446 92.319 8.94094C92.319 7.73726 91.3339 6.76147 90.1187 6.76147C88.9035 6.76147 87.9184 7.73726 87.9184 8.94094C87.9184 10.1446 88.9035 11.1204 90.1187 11.1204Z" fill="black"/>
<path d="M58.9375 18.2155C59.7887 18.2752 60.5275 17.6388 60.5917 16.7917C60.5958 16.744 60.5958 16.6883 60.5958 16.6366C60.5837 16.3423 60.5476 16.044 60.4873 15.7537C59.9654 12.9935 57.5844 10.9612 54.7538 10.8499C51.5297 10.8499 48.8356 13.785 48.8356 17.3883C48.8356 20.9915 51.4855 23.9306 54.7498 23.9306C56.4803 23.9982 58.1586 23.3062 59.323 22.0375C59.8008 21.5205 59.7606 20.7211 59.2386 20.2478C59.1985 20.212 59.1624 20.1802 59.1222 20.1524C58.6003 19.8302 57.9217 19.8978 57.48 20.3194C56.7533 21.0353 55.7776 21.4449 54.7498 21.4767C52.9751 21.3375 51.5538 19.9615 51.3771 18.1996H58.8893L58.9375 18.2155ZM54.7377 13.3117C56.2996 13.4151 57.6125 14.5207 57.9619 16.036H51.5217C51.8669 14.5168 53.1719 13.4111 54.7377 13.3117Z" fill="black"/>
<path d="M48.964 12.1183C48.964 11.5059 48.5063 10.9849 47.892 10.9093C46.2338 10.6349 44.5474 11.2434 43.4594 12.5161V12.357C43.4594 11.6769 42.9053 11.128 42.2187 11.128C41.5321 11.128 40.978 11.6769 40.978 12.357V22.4191C40.962 23.0793 41.4719 23.6401 42.1384 23.6958C42.8169 23.7435 43.4112 23.2344 43.4553 22.5623C43.4594 22.5146 43.4594 22.4668 43.4553 22.4191V17.2568C43.3469 15.1966 44.9409 13.4427 47.0207 13.3314C47.2054 13.3194 47.3941 13.3234 47.5788 13.3433H47.8278C48.4702 13.2876 48.964 12.7587 48.964 12.1183Z" fill="black"/>
<path d="M91.3553 13.4389C91.3553 12.7588 90.8012 12.21 90.1147 12.21C89.4281 12.21 88.874 12.7588 88.874 13.4389V22.4153C88.874 23.0954 89.4281 23.6442 90.1147 23.6442C90.8012 23.6442 91.3553 23.0954 91.3553 22.4153V13.4389Z" fill="black"/>
<path d="M73.0465 6.61802C73.0465 5.94191 72.4925 5.39307 71.8099 5.39307C71.1273 5.39307 70.5732 5.94191 70.5732 6.61802V12.1065C69.7381 11.2713 68.5898 10.8179 67.4053 10.8497C64.1812 10.8497 61.4871 13.7848 61.4871 17.3881C61.4871 20.9914 64.1411 23.9305 67.4053 23.9305C68.6099 23.9663 69.7742 23.5089 70.6294 22.6618C70.8222 23.31 71.5088 23.6799 72.1632 23.489C72.6571 23.3458 73.0104 22.9163 73.0425 22.4033L73.0465 6.61802ZM67.3973 21.5084C65.4982 21.5084 63.9524 19.6789 63.9524 17.4159C63.9524 15.1529 65.4861 13.3235 67.3973 13.3235C69.3085 13.3235 70.8422 15.1529 70.8422 17.4159C70.8422 19.6789 69.3085 21.4885 67.4053 21.4885L67.3973 21.5084Z" fill="black"/>
<path d="M85.9832 6.61802C85.9832 5.94191 85.4291 5.39307 84.7465 5.39307C84.0639 5.39307 83.5099 5.94191 83.5099 6.61802V12.1065C82.6747 11.2713 81.5264 10.8179 80.342 10.8497C77.1178 10.8497 74.4237 13.7848 74.4237 17.3881C74.4237 20.9914 77.0777 23.9305 80.342 23.9305C81.5465 23.9663 82.7109 23.5089 83.5661 22.6618C83.7588 23.31 84.4454 23.6799 85.0998 23.489C85.5937 23.3458 85.947 22.9163 85.9791 22.4033L85.9832 6.61802ZM80.3379 21.5084C78.4388 21.5084 76.893 19.6789 76.893 17.4159C76.893 15.1529 78.4268 13.3235 80.3379 13.3235C82.2491 13.3235 83.7829 15.1529 83.7829 17.4159C83.7829 19.6789 82.2491 21.4885 80.346 21.4885L80.3379 21.5084Z" fill="black"/>
<path d="M97.7835 22.4112V13.3115H98.8555C99.4498 13.3473 99.9557 12.8979 99.9918 12.3133C99.9918 12.2934 99.9958 12.2695 99.9958 12.2457C100.048 11.661 99.6104 11.144 99.0242 11.0923C98.992 11.0883 98.9559 11.0883 98.9238 11.0883H97.7875V9.39803C97.7955 8.7418 97.2896 8.18898 96.6271 8.12932C95.9486 8.08159 95.3584 8.59067 95.3102 9.2628C95.3062 9.29064 95.3062 9.32246 95.3062 9.3503V11.1161H94.2301C93.6359 11.0804 93.13 11.5298 93.0939 12.1144C93.0939 12.1343 93.0899 12.1582 93.0899 12.182C93.0377 12.7667 93.4753 13.2837 94.0615 13.3354C94.0936 13.3394 94.1298 13.3394 94.1619 13.3394H95.2339V22.4152C95.2339 23.0913 95.788 23.6401 96.4706 23.6401C97.1531 23.6839 97.7353 23.1669 97.7795 22.4907C97.7835 22.4669 97.7835 22.439 97.7835 22.4112Z" fill="black"/>
</g>
<defs>
<clipPath id="clip0_51_10">
<rect width="100" height="32" fill="white"/>
</clipPath>
</defs>
</svg>
